<svg xmlns="http://www.w3.org/2000/svg" viewBox="0 0 152 152"><path fill="#5FC8DF" d="M152 23v106c0 12.7-10.3 23-23 23H23c-12.7 0-23-10.3-23-23V23C0 10.3 10.3 0 23 0h106c12.7 0 23 10.3 23 23z"/><path fill="#FFF" d="M152 23v2c0-12.7-10.3-23-23-23H23C10.3 2 0 12.3 0 25v-2C0 10.3 10.3 0 23 0h106c12.7 0 23 10.3 23 23z" opacity=".2"/><path fill="#010101" d="M152 125v4c0 12.7-10.3 23-23 23H23c-12.7 0-23-10.3-23-23v-4c0 12.7 10.3 23 23 23h106c12.7 0 23-10.3 23-23z" opacity=".15"/><linearGradient id="a" x1="100.681" x2="57.969" y1="97.779" y2="55.067" gradientUnits="userSpaceOnUse"><stop offset="0" stop-color="#010101" stop-opacity="0"/><stop offset="1" stop-color="#010101"/></linearGradient><path fill="url(#a)" d="M152 76.9V129c0 12.7-10.3 23-23 23H82.7l-18.5-18.5-2.7-4.4v-10.8L20.3 77l14.3-21.1 37-21.7 6.2-16.6L101 40.8l19.6 4.6L152 76.9z" opacity=".15"/><linearGradient id="b" x1="20.589" x2="131.586" y1="64.074" y2="64.074" gradientUnits="userSpaceOnUse"><stop offset="0" stop-color="#B1C1C8"/><stop offset=".124" stop-color="#D1DCE4"/><stop offset=".253" stop-color="#FFF"/><stop offset=".385" stop-color="#9FB1B6"/><stop offset=".523" stop-color="#FFF"/><stop offset=".679" stop-color="#B6C3C7"/><stop offset=".851" stop-color="#ECEFF0"/><stop offset="1" stop-color="#B1C1C8"/></linearGradient><path fill="url(#b)" d="M75.9 109.8c.7 0 1.4.3 1.8.8V19.4c0-1-.8-1.8-1.8-1.8s-1.8.8-1.8 1.8v91.1c.5-.4 1.1-.7 1.8-.7z"/><linearGradient id="c" x1="20.262" x2="131.741" y1="50.843" y2="50.843" gradientUnits="userSpaceOnUse"><stop offset="0" stop-color="#7B66AD"/><stop offset="1" stop-color="#584895"/></linearGradient><path fill="url(#c)" d="M131.7 77c-4.1-3.4-9.7-5.4-15.8-5.4-6.9 0-13 2.6-17.3 6.7v.1h-.3c-5.4-4.2-13.4-6.8-22.3-6.8s-16.9 2.6-22.3 6.8h-.3v-.1c-4.2-4.1-10.4-6.7-17.3-6.7-6.1 0-11.7 2.1-15.8 5.4 1-29.8 25.6-53.7 55.7-53.7s54.7 23.9 55.7 53.7z"/><linearGradient id="d" x1="76.001" x2="76.001" y1="91.816" y2="24.648" gradientUnits="userSpaceOnUse"><stop offset="0" stop-color="#7B66AD"/><stop offset="1" stop-color="#584895"/></linearGradient><path fill="url(#d)" d="M98.6 78.3v.3l-.2-.2s-.1 0-.1-.1c-5.4-4.2-13.4-6.8-22.3-6.8s-16.9 2.6-22.3 6.8l-.1.1-.2.2V78.3C51.7 60.6 57.7 39.2 72 27c1.3-1.2 2.7-2.4 4-3.5 1.3 1.2 2.6 2.4 4 3.5 14.3 12.2 20.3 33.6 18.6 51.3z"/><path fill="#294349" d="M68.4 134.4c-5.6 0-10.1-4.5-10.1-10.1v-4.2c0-1.4 1.1-2.5 2.5-2.5s2.5 1.1 2.5 2.5v4.2c0 2.8 2.2 5 5 5s5-2.2 5-5v-12c0-1.4 1.1-2.5 2.5-2.5s2.5 1.1 2.5 2.5v12c.2 5.6-4.4 10.1-9.9 10.1z"/></svg>